<svg xmlns="http://www.w3.org/2000/svg" viewBox="0 0 700 1600" width="700" height="1600" font-family="system-ui, -apple-system, sans-serif">
<rect width="700" height="1600" fill="white"/>
<text x="20" y="30" style="font-size:18px;font-weight:700;fill:#1a1a1a">Aurora Primary School — All Floors</text>
<g transform="translate(10, 50)"><rect width="340" height="220" fill="#FAFAFA" stroke="#E0E0E0" rx="8"/><text x="20" y="22" style="font-size:13px;font-weight:700;fill:#333">Basement</text><rect x="20" y="150" width="300" height="50" fill="#EEE" stroke="#BBB" stroke-width="0.5" rx="2"/><rect x="20" y="50" width="100" height="100" fill="#FFCDD2" stroke="#D32F2F" stroke-width="1" rx="3" data-room-id="rm-boiler"/><text x="70" y="95" text-anchor="middle" style="font-size:8px;font-weight:600;fill:#333">Boiler</text><text x="70" y="105" text-anchor="middle" style="font-size:6px;font-weight:400;fill:#666">Room</text><rect x="120" y="50" width="100" height="100" fill="#F5F5F5" stroke="#9E9E9E" stroke-width="1" rx="3" data-room-id="rm-storage-b"/><text x="170" y="100" text-anchor="middle" style="font-size:8px;font-weight:600;fill:#333">Storage</text><rect x="220" y="50" width="100" height="100" fill="#F5F5F5" stroke="#9E9E9E" stroke-width="1" rx="3" data-room-id="rm-caretaker"/><text x="270" y="100" text-anchor="middle" style="font-size:8px;font-weight:600;fill:#333">Caretaker</text></g><g transform="translate(10, 285)"><rect width="640" height="520" fill="#FAFAFA" stroke="#E0E0E0" rx="8"/><text x="20" y="22" style="font-size:13px;font-weight:700;fill:#333">Ground Floor</text><rect x="20" y="150" width="600" height="50" fill="#EEE" stroke="#BBB" stroke-width="0.5" rx="2"/><rect x="20" y="50" width="100" height="100" fill="#E8EAF6" stroke="#3F51B5" stroke-width="1" rx="3" data-room-id="rm-reception"/><text x="70" y="100" text-anchor="middle" style="font-size:8px;font-weight:600;fill:#333">Reception</text><rect x="120" y="50" width="100" height="100" fill="#E8EAF6" stroke="#3F51B5" stroke-width="1" rx="3" data-room-id="rm-head"/><text x="170" y="95" text-anchor="middle" style="font-size:8px;font-weight:600;fill:#333">Head's</text><text x="170" y="105" text-anchor="middle" style="font-size:6px;font-weight:400;fill:#666">Office</text><rect x="220" y="50" width="100" height="100" fill="#E3F2FD" stroke="#2196F3" stroke-width="1" rx="3" data-room-id="rm-admin"/><text x="270" y="95" text-anchor="middle" style="font-size:8px;font-weight:600;fill:#333">School</text><text x="270" y="105" text-anchor="middle" style="font-size:6px;font-weight:400;fill:#666">Office</text><rect x="320" y="50" width="100" height="100" fill="#E8EAF6" stroke="#3F51B5" stroke-width="1" rx="3" data-room-id="rm-meeting"/><text x="370" y="95" text-anchor="middle" style="font-size:8px;font-weight:600;fill:#333">Meeting</text><text x="370" y="105" text-anchor="middle" style="font-size:6px;font-weight:400;fill:#666">Room</text><rect x="420" y="50" width="100" height="100" fill="#FCE4EC" stroke="#E91E63" stroke-width="1" rx="3" data-room-id="rm-medical"/><text x="470" y="100" text-anchor="middle" style="font-size:8px;font-weight:600;fill:#333">Medical</text><rect x="520" y="50" width="100" height="100" fill="#FFF9C4" stroke="#FBC02D" stroke-width="1" rx="3" data-room-id="rm-send-1"/><text x="570" y="95" text-anchor="middle" style="font-size:8px;font-weight:600;fill:#333">Intervention</text><text x="570" y="105" text-anchor="middle" style="font-size:6px;font-weight:400;fill:#666">Room 1</text><rect x="20" y="200" width="150" height="150" fill="#E8F5E9" stroke="#4CAF50" stroke-width="1" rx="3" data-room-id="rm-oak"/><text x="95" y="270" text-anchor="middle" style="font-size:8px;font-weight:600;fill:#333">Oak</text><text x="95" y="280" text-anchor="middle" style="font-size:6px;font-weight:400;fill:#666">(Reception)</text><rect x="170" y="200" width="150" height="150" fill="#E8F5E9" stroke="#4CAF50" stroke-width="1" rx="3" data-room-id="rm-maple"/><text x="245" y="270" text-anchor="middle" style="font-size:8px;font-weight:600;fill:#333">Maple</text><text x="245" y="280" text-anchor="middle" style="font-size:6px;font-weight:400;fill:#666">(Reception)</text><rect x="20" y="350" width="150" height="150" fill="#E8F5E9" stroke="#4CAF50" stroke-width="1" rx="3" data-room-id="rm-birch"/><text x="95" y="420" text-anchor="middle" style="font-size:8px;font-weight:600;fill:#333">Birch</text><text x="95" y="430" text-anchor="middle" style="font-size:6px;font-weight:400;fill:#666">(Year 1)</text><rect x="170" y="350" width="150" height="150" fill="#E8F5E9" stroke="#4CAF50" stroke-width="1" rx="3" data-room-id="rm-elm"/><text x="245" y="420" text-anchor="middle" style="font-size:8px;font-weight:600;fill:#333">Elm</text><text x="245" y="430" text-anchor="middle" style="font-size:6px;font-weight:400;fill:#666">(Year 1)</text><rect x="320" y="200" width="100" height="100" fill="#ECEFF1" stroke="#607D8B" stroke-width="1" rx="3" data-room-id="rm-cloakroom-eyfs"/><text x="370" y="245" text-anchor="middle" style="font-size:8px;font-weight:600;fill:#333">EYFS</text><text x="370" y="255" text-anchor="middle" style="font-size:6px;font-weight:400;fill:#666">Cloakroom</text><rect x="320" y="300" width="100" height="100" fill="#ECEFF1" stroke="#607D8B" stroke-width="1" rx="3" data-room-id="rm-toilet-eyfs"/><text x="370" y="345" text-anchor="middle" style="font-size:8px;font-weight:600;fill:#333">EYFS</text><text x="370" y="355" text-anchor="middle" style="font-size:6px;font-weight:400;fill:#666">Toilets</text><rect x="420" y="200" width="200" height="200" fill="#FFF3E0" stroke="#FF9800" stroke-width="1" rx="3" data-room-id="rm-hall"/><text x="520" y="300" text-anchor="middle" style="font-size:8px;font-weight:600;fill:#333">Main Hall</text><rect x="420" y="400" width="100" height="100" fill="#FFEBEE" stroke="#F44336" stroke-width="1" rx="3" data-room-id="rm-kitchen"/><text x="470" y="450" text-anchor="middle" style="font-size:8px;font-weight:600;fill:#333">Kitchen</text><rect x="520" y="400" width="100" height="100" fill="#FFF3E0" stroke="#FF9800" stroke-width="1" rx="3" data-room-id="rm-dining"/><text x="570" y="450" text-anchor="middle" style="font-size:8px;font-weight:600;fill:#333">Dining</text><text x="20" y="25" style="font-size:7px;font-weight:600;fill:#D32F2F">🚪 Main Entrance ↑</text><text x="20" y="525" style="font-size:7px;font-weight:600;fill:#D32F2F">🚪 EYFS Fire Door ↓</text><text x="645" y="300" style="font-size:7px;font-weight:600;fill:#D32F2F">🚪 Hall Fire Door →</text><text x="420" y="525" style="font-size:7px;font-weight:600;fill:#D32F2F">🚪 Kitchen Exit ↓</text></g><g transform="translate(10, 820)"><rect width="640" height="470" fill="#FAFAFA" stroke="#E0E0E0" rx="8"/><text x="20" y="22" style="font-size:13px;font-weight:700;fill:#333">First Floor</text><rect x="20" y="350" width="275" height="50" fill="#EEE" stroke="#BBB" stroke-width="0.5" rx="2"/><rect x="345" y="400" width="275" height="50" fill="#EEE" stroke="#BBB" stroke-width="0.5" rx="2"/><rect x="20" y="50" width="150" height="150" fill="#E8F5E9" stroke="#4CAF50" stroke-width="1" rx="3" data-room-id="rm-ash"/><text x="95" y="120" text-anchor="middle" style="font-size:8px;font-weight:600;fill:#333">Ash</text><text x="95" y="130" text-anchor="middle" style="font-size:6px;font-weight:400;fill:#666">(Year 2)</text><rect x="170" y="50" width="150" height="150" fill="#E8F5E9" stroke="#4CAF50" stroke-width="1" rx="3" data-room-id="rm-willow"/><text x="245" y="120" text-anchor="middle" style="font-size:8px;font-weight:600;fill:#333">Willow</text><text x="245" y="130" text-anchor="middle" style="font-size:6px;font-weight:400;fill:#666">(Year 2)</text><rect x="20" y="200" width="150" height="150" fill="#E8F5E9" stroke="#4CAF50" stroke-width="1" rx="3" data-room-id="rm-holly"/><text x="95" y="270" text-anchor="middle" style="font-size:8px;font-weight:600;fill:#333">Holly</text><text x="95" y="280" text-anchor="middle" style="font-size:6px;font-weight:400;fill:#666">(Year 3)</text><rect x="170" y="200" width="150" height="150" fill="#E8F5E9" stroke="#4CAF50" stroke-width="1" rx="3" data-room-id="rm-rowan"/><text x="245" y="270" text-anchor="middle" style="font-size:8px;font-weight:600;fill:#333">Rowan</text><text x="245" y="280" text-anchor="middle" style="font-size:6px;font-weight:400;fill:#666">(Year 3)</text><rect x="295" y="50" width="50" height="150" fill="#ECEFF1" stroke="#607D8B" stroke-width="1" rx="3" data-room-id="rm-toilet-ff"/><text x="320" y="125" text-anchor="middle" style="font-size:8px;font-weight:600;fill:#333">Toilets</text><rect x="295" y="200" width="50" height="100" fill="#ECEFF1" stroke="#607D8B" stroke-width="1" rx="3" data-room-id="rm-staff-toilet-ff"/><text x="320" y="245" text-anchor="middle" style="font-size:8px;font-weight:600;fill:#333">Staff</text><text x="320" y="255" text-anchor="middle" style="font-size:6px;font-weight:400;fill:#666">WC</text><rect x="345" y="50" width="137.5" height="150" fill="#E8F5E9" stroke="#4CAF50" stroke-width="1" rx="3" data-room-id="rm-cedar"/><text x="413.75" y="120" text-anchor="middle" style="font-size:8px;font-weight:600;fill:#333">Cedar</text><text x="413.75" y="130" text-anchor="middle" style="font-size:6px;font-weight:400;fill:#666">(Year 4)</text><rect x="482.5" y="50" width="137.5" height="150" fill="#E8F5E9" stroke="#4CAF50" stroke-width="1" rx="3" data-room-id="rm-pine"/><text x="551.25" y="120" text-anchor="middle" style="font-size:8px;font-weight:600;fill:#333">Pine</text><text x="551.25" y="130" text-anchor="middle" style="font-size:6px;font-weight:400;fill:#666">(Year 4)</text><rect x="345" y="200" width="137.5" height="100" fill="#E0F7FA" stroke="#00BCD4" stroke-width="1" rx="3" data-room-id="rm-library"/><text x="413.75" y="250" text-anchor="middle" style="font-size:8px;font-weight:600;fill:#333">Library</text><rect x="482.5" y="200" width="137.5" height="100" fill="#E0F7FA" stroke="#00BCD4" stroke-width="1" rx="3" data-room-id="rm-ict"/><text x="551.25" y="250" text-anchor="middle" style="font-size:8px;font-weight:600;fill:#333">ICT Suite</text><rect x="345" y="300" width="137.5" height="100" fill="#F3E5F5" stroke="#9C27B0" stroke-width="1" rx="3" data-room-id="rm-staffroom"/><text x="413.75" y="350" text-anchor="middle" style="font-size:8px;font-weight:600;fill:#333">Staff Room</text><rect x="482.5" y="300" width="137.5" height="100" fill="#FFF9C4" stroke="#FBC02D" stroke-width="1" rx="3" data-room-id="rm-send-2"/><text x="551.25" y="345" text-anchor="middle" style="font-size:8px;font-weight:600;fill:#333">Intervention</text><text x="551.25" y="355" text-anchor="middle" style="font-size:6px;font-weight:400;fill:#666">Room 2</text><text x="-5" y="200" style="font-size:7px;font-weight:600;fill:#D32F2F">🚪 ← West Stairs</text><text x="645" y="200" style="font-size:7px;font-weight:600;fill:#D32F2F">🚪 East Stairs →</text></g><g transform="translate(10, 1305)"><rect width="640" height="370" fill="#FAFAFA" stroke="#E0E0E0" rx="8"/><text x="20" y="22" style="font-size:13px;font-weight:700;fill:#333">Second Floor</text><rect x="20" y="200" width="600" height="50" fill="#EEE" stroke="#BBB" stroke-width="0.5" rx="2"/><rect x="20" y="50" width="150" height="150" fill="#E8F5E9" stroke="#4CAF50" stroke-width="1" rx="3" data-room-id="rm-beech"/><text x="95" y="120" text-anchor="middle" style="font-size:8px;font-weight:600;fill:#333">Beech</text><text x="95" y="130" text-anchor="middle" style="font-size:6px;font-weight:400;fill:#666">(Year 5)</text><rect x="170" y="50" width="150" height="150" fill="#E8F5E9" stroke="#4CAF50" stroke-width="1" rx="3" data-room-id="rm-chestnut"/><text x="245" y="120" text-anchor="middle" style="font-size:8px;font-weight:600;fill:#333">Chestnut</text><text x="245" y="130" text-anchor="middle" style="font-size:6px;font-weight:400;fill:#666">(Year 5)</text><rect x="320" y="50" width="150" height="150" fill="#E8F5E9" stroke="#4CAF50" stroke-width="1" rx="3" data-room-id="rm-hazel"/><text x="395" y="120" text-anchor="middle" style="font-size:8px;font-weight:600;fill:#333">Hazel</text><text x="395" y="130" text-anchor="middle" style="font-size:6px;font-weight:400;fill:#666">(Year 6)</text><rect x="470" y="50" width="150" height="150" fill="#E8F5E9" stroke="#4CAF50" stroke-width="1" rx="3" data-room-id="rm-sycamore"/><text x="545" y="120" text-anchor="middle" style="font-size:8px;font-weight:600;fill:#333">Sycamore</text><text x="545" y="130" text-anchor="middle" style="font-size:6px;font-weight:400;fill:#666">(Year 6)</text><rect x="20" y="250" width="150" height="100" fill="#E3F2FD" stroke="#2196F3" stroke-width="1" rx="3" data-room-id="rm-ppa"/><text x="95" y="300" text-anchor="middle" style="font-size:8px;font-weight:600;fill:#333">PPA Room</text><rect x="170" y="250" width="150" height="100" fill="#F5F5F5" stroke="#9E9E9E" stroke-width="1" rx="3" data-room-id="rm-resources"/><text x="245" y="300" text-anchor="middle" style="font-size:8px;font-weight:600;fill:#333">Resources</text><rect x="320" y="250" width="100" height="100" fill="#ECEFF1" stroke="#607D8B" stroke-width="1" rx="3" data-room-id="rm-toilet-sf"/><text x="370" y="300" text-anchor="middle" style="font-size:8px;font-weight:600;fill:#333">Toilets</text><text x="-5" y="150" style="font-size:7px;font-weight:600;fill:#D32F2F">🚪 ← West Stairs</text><text x="645" y="150" style="font-size:7px;font-weight:600;fill:#D32F2F">🚪 East Stairs →</text></g></svg>