<svg xmlns="http://www.w3.org/2000/svg" viewBox="0 0 640 520" width="640" height="520" font-family="system-ui, -apple-system, sans-serif">
  <style>
    .room-label { font-size: 9px; font-weight: 600; text-anchor: middle; fill: #333; }
    .room-sublabel { font-size: 7px; text-anchor: middle; fill: #666; }
    .floor-title { font-size: 14px; font-weight: 700; fill: #1a1a1a; }
    .exit-label { font-size: 8px; font-weight: 600; fill: #D32F2F; }
    .corridor { fill: #EEEEEE; stroke: #BDBDBD; stroke-width: 0.5; }
  </style>
  <rect width="640" height="520" fill="white" rx="8"/>
  <text x="20" y="22" class="floor-title">Ground Floor — Aurora Primary School</text>
  <rect x="20" y="150" width="600" height="50" class="corridor" rx="2"/>
  <rect x="20" y="50" width="100" height="100" fill="#E8EAF6" stroke="#3F51B5" stroke-width="1.5" rx="4" data-room-id="rm-reception"/>
  <text x="70" y="100" class="room-label">Reception</text>
  <rect x="120" y="50" width="100" height="100" fill="#E8EAF6" stroke="#3F51B5" stroke-width="1.5" rx="4" data-room-id="rm-head"/>
  <text x="170" y="94" class="room-label">Head's</text>
  <text x="170" y="106" class="room-sublabel">Office</text>
  <rect x="220" y="50" width="100" height="100" fill="#E3F2FD" stroke="#2196F3" stroke-width="1.5" rx="4" data-room-id="rm-admin"/>
  <text x="270" y="94" class="room-label">School</text>
  <text x="270" y="106" class="room-sublabel">Office</text>
  <rect x="320" y="50" width="100" height="100" fill="#E8EAF6" stroke="#3F51B5" stroke-width="1.5" rx="4" data-room-id="rm-meeting"/>
  <text x="370" y="94" class="room-label">Meeting</text>
  <text x="370" y="106" class="room-sublabel">Room</text>
  <rect x="420" y="50" width="100" height="100" fill="#FCE4EC" stroke="#E91E63" stroke-width="1.5" rx="4" data-room-id="rm-medical"/>
  <text x="470" y="100" class="room-label">Medical</text>
  <rect x="520" y="50" width="100" height="100" fill="#FFF9C4" stroke="#FBC02D" stroke-width="1.5" rx="4" data-room-id="rm-send-1"/>
  <text x="570" y="94" class="room-label">Intervention</text>
  <text x="570" y="106" class="room-sublabel">Room 1</text>
  <rect x="20" y="200" width="150" height="150" fill="#E8F5E9" stroke="#4CAF50" stroke-width="1.5" rx="4" data-room-id="rm-oak"/>
  <text x="95" y="269" class="room-label">Oak</text>
  <text x="95" y="281" class="room-sublabel">(Reception)</text>
  <rect x="170" y="200" width="150" height="150" fill="#E8F5E9" stroke="#4CAF50" stroke-width="1.5" rx="4" data-room-id="rm-maple"/>
  <text x="245" y="269" class="room-label">Maple</text>
  <text x="245" y="281" class="room-sublabel">(Reception)</text>
  <rect x="20" y="350" width="150" height="150" fill="#E8F5E9" stroke="#4CAF50" stroke-width="1.5" rx="4" data-room-id="rm-birch"/>
  <text x="95" y="419" class="room-label">Birch</text>
  <text x="95" y="431" class="room-sublabel">(Year 1)</text>
  <rect x="170" y="350" width="150" height="150" fill="#E8F5E9" stroke="#4CAF50" stroke-width="1.5" rx="4" data-room-id="rm-elm"/>
  <text x="245" y="419" class="room-label">Elm</text>
  <text x="245" y="431" class="room-sublabel">(Year 1)</text>
  <rect x="320" y="200" width="100" height="100" fill="#ECEFF1" stroke="#607D8B" stroke-width="1.5" rx="4" data-room-id="rm-cloakroom-eyfs"/>
  <text x="370" y="244" class="room-label">EYFS</text>
  <text x="370" y="256" class="room-sublabel">Cloakroom</text>
  <rect x="320" y="300" width="100" height="100" fill="#ECEFF1" stroke="#607D8B" stroke-width="1.5" rx="4" data-room-id="rm-toilet-eyfs"/>
  <text x="370" y="344" class="room-label">EYFS</text>
  <text x="370" y="356" class="room-sublabel">Toilets</text>
  <rect x="420" y="200" width="200" height="200" fill="#FFF3E0" stroke="#FF9800" stroke-width="1.5" rx="4" data-room-id="rm-hall"/>
  <text x="520" y="300" class="room-label">Main Hall</text>
  <rect x="420" y="400" width="100" height="100" fill="#FFEBEE" stroke="#F44336" stroke-width="1.5" rx="4" data-room-id="rm-kitchen"/>
  <text x="470" y="450" class="room-label">Kitchen</text>
  <rect x="520" y="400" width="100" height="100" fill="#FFF3E0" stroke="#FF9800" stroke-width="1.5" rx="4" data-room-id="rm-dining"/>
  <text x="570" y="450" class="room-label">Dining</text>
  <text x="20" y="25" class="exit-label">🚪 Main Entrance ↑</text>
  <text x="20" y="525" class="exit-label">🚪 EYFS Fire Door ↓</text>
  <text x="645" y="300" class="exit-label">🚪 Hall Fire Door →</text>
  <text x="420" y="525" class="exit-label">🚪 Kitchen Exit ↓</text>
</svg>